<svg width="24" height="24" viewBox="0 0 24 24" fill="none" xmlns="http://www.w3.org/2000/svg">
<path fill-rule="evenodd" clip-rule="evenodd" d="M16.5 4.47799V4.70499C17.799 4.82378 19.0927 4.99458 20.378 5.21699C20.4751 5.2338 20.5678 5.26956 20.6511 5.32223C20.7343 5.3749 20.8063 5.44344 20.8631 5.52395C20.9198 5.60446 20.9601 5.69535 20.9817 5.79145C21.0033 5.88754 21.0058 5.98695 20.989 6.08399C20.9722 6.18104 20.9364 6.27383 20.8838 6.35705C20.8311 6.44028 20.7626 6.51232 20.682 6.56906C20.6015 6.62579 20.5106 6.66612 20.4146 6.68772C20.3185 6.70933 20.2191 6.7118 20.122 6.69499L19.913 6.65999L18.908 19.73C18.8501 20.4836 18.5098 21.1875 17.9553 21.7011C17.4008 22.2146 16.6728 22.5 15.917 22.5H8.08401C7.3282 22.5 6.60026 22.2146 6.04573 21.7011C5.4912 21.1875 5.15095 20.4836 5.09301 19.73L4.08701 6.65999L3.87801 6.69499C3.78096 6.7118 3.68155 6.70933 3.58546 6.68772C3.48937 6.66612 3.39847 6.62579 3.31796 6.56906C3.15537 6.45447 3.04495 6.27999 3.01101 6.08399C2.97706 5.888 3.02236 5.68655 3.13694 5.52395C3.25153 5.36136 3.42601 5.25094 3.62201 5.21699C4.90727 4.99432 6.20099 4.82351 7.50001 4.70499V4.47799C7.50001 2.91399 8.71301 1.57799 10.316 1.52699C11.4387 1.49106 12.5623 1.49106 13.685 1.52699C15.288 1.57799 16.5 2.91399 16.5 4.47799ZM10.364 3.02599C11.4547 2.99111 12.5463 2.99111 13.637 3.02599C14.39 3.04999 15 3.68399 15 4.47799V4.59099C13.0018 4.46964 10.9982 4.46964 9.00001 4.59099V4.47799C9.00001 3.68399 9.60901 3.04999 10.364 3.02599ZM10.009 8.97099C10.0052 8.8725 9.98203 8.77573 9.94082 8.68619C9.89961 8.59665 9.84117 8.51611 9.76883 8.44916C9.69649 8.38221 9.61168 8.33016 9.51923 8.29599C9.42678 8.26181 9.3285 8.24619 9.23001 8.24999C9.13152 8.2538 9.03474 8.27697 8.9452 8.31818C8.85567 8.35939 8.77512 8.41783 8.70817 8.49017C8.64122 8.56251 8.58917 8.64732 8.555 8.73977C8.52083 8.83222 8.5052 8.9305 8.50901 9.02899L8.85601 18.029C8.8637 18.2278 8.95004 18.4154 9.09604 18.5505C9.16833 18.6174 9.25309 18.6694 9.34548 18.7035C9.43787 18.7377 9.53608 18.7533 9.63451 18.7495C9.73293 18.7457 9.82964 18.7225 9.91912 18.6813C10.0086 18.6402 10.0891 18.5818 10.156 18.5095C10.2229 18.4372 10.2749 18.3524 10.3091 18.26C10.3432 18.1676 10.3588 18.0694 10.355 17.971L10.009 8.97099ZM15.489 9.02899C15.4963 8.92861 15.4834 8.82778 15.4509 8.7325C15.4185 8.63723 15.3672 8.54946 15.3001 8.47444C15.233 8.39941 15.1515 8.33865 15.0604 8.29578C14.9694 8.25291 14.8706 8.22882 14.77 8.22492C14.6694 8.22103 14.5691 8.23742 14.475 8.27312C14.3809 8.30881 14.2949 8.36309 14.2222 8.4327C14.1496 8.50232 14.0916 8.58586 14.0519 8.67834C14.0122 8.77082 13.9915 8.87034 13.991 8.97099L13.644 17.971C13.6363 18.1699 13.708 18.3637 13.8432 18.5098C13.9784 18.6559 14.1661 18.7423 14.365 18.75C14.5639 18.7577 14.7577 18.686 14.9038 18.5508C15.0499 18.4156 15.1363 18.2279 15.144 18.029L15.489 9.02899Z" fill="black" fill-opacity="0.6"/>
</svg>
