<svg width="31" height="31" viewBox="0 0 31 31" fill="none" xmlns="http://www.w3.org/2000/svg">
<path d="M17.4375 23.25C17.4375 23.6332 17.3239 24.0078 17.111 24.3264C16.8981 24.645 16.5955 24.8934 16.2415 25.04C15.8874 25.1867 15.4979 25.225 15.122 25.1503C14.7462 25.0755 14.4009 24.891 14.13 24.62C13.859 24.3491 13.6745 24.0038 13.5997 23.628C13.525 23.2522 13.5633 22.8626 13.71 22.5086C13.8566 22.1545 14.105 21.8519 14.4236 21.639C14.7422 21.4261 15.1168 21.3125 15.5 21.3125C16.0139 21.3125 16.5067 21.5166 16.87 21.88C17.2334 22.2433 17.4375 22.7361 17.4375 23.25ZM15.5 9.6875C15.8832 9.6875 16.2578 9.57387 16.5764 9.36097C16.895 9.14808 17.1434 8.84548 17.29 8.49145C17.4367 8.13742 17.475 7.74785 17.4003 7.37201C17.3255 6.99618 17.141 6.65095 16.87 6.37998C16.5991 6.10902 16.2538 5.92449 15.878 5.84973C15.5022 5.77497 15.1126 5.81334 14.7586 5.95998C14.4045 6.10663 14.1019 6.35496 13.889 6.67358C13.6761 6.9922 13.5625 7.3668 13.5625 7.75C13.5625 8.26386 13.7666 8.75667 14.13 9.12002C14.4933 9.48337 14.9861 9.6875 15.5 9.6875ZM15.5 13.5625C15.1168 13.5625 14.7422 13.6761 14.4236 13.889C14.105 14.1019 13.8566 14.4045 13.71 14.7586C13.5633 15.1126 13.525 15.5022 13.5997 15.878C13.6745 16.2538 13.859 16.5991 14.13 16.87C14.4009 17.141 14.7462 17.3255 15.122 17.4003C15.4979 17.475 15.8874 17.4367 16.2415 17.29C16.5955 17.1434 16.8981 16.895 17.111 16.5764C17.3239 16.2578 17.4375 15.8832 17.4375 15.5C17.4375 14.9861 17.2334 14.4933 16.87 14.13C16.5067 13.7666 16.0139 13.5625 15.5 13.5625Z" fill="black" fill-opacity="0.58"/>
</svg>
